{"asset":{"version":"2.0","generator":"babylon.js glTF exporter for 3dsmax 2017 v20200513.2"},"scene":0,"scenes":[{"nodes":[0,1,2,3]}],"nodes":[{"mesh":0,"translation":[0.0110498806,0.3384046,-0.150111973],"name":"Box010"},{"translation":[0.009679727,0.0,-0.122994646],"name":"Direct001.Target"},{"mesh":1,"translation":[-0.9491264,0.6599084,-0.1799803],"scale":[0.493952185,0.493952185,0.493952185],"name":"Sphere001"},{"translation":[-1.03058445,1.58724,-1.40312207],"rotation":[-0.1250723,-0.8740506,-0.352233768,0.3103607],"scale":[0.99999994,1.0,1.0],"name":"Direct001"}],"meshes":[{"primitives":[{"attributes":{"POSITION":1,"NORMAL":2,"COLOR_0":3,"TEXCOORD_0":4},"indices":0,"material":0}],"name":"Box010"},{"primitives":[{"attributes":{"POSITION":6,"NORMAL":7,"TEXCOORD_0":8},"indices":5,"material":1}],"name":"Sphere001"}],"accessors":[{"bufferView":0,"componentType":5123,"count":7320,"type":"SCALAR","name":"accessorIndices"},{"bufferView":1,"componentType":5126,"count":7320,"max":[0.6000002,0.550000131,0.20711191],"min":[-0.6000002,-0.5500001,-0.195971772],"type":"VEC3","name":"accessorPositions"},{"bufferView":1,"byteOffset":87840,"componentType":5126,"count":7320,"type":"VEC3","name":"accessorNormals"},{"bufferView":2,"componentType":5126,"count":7320,"type":"VEC4","name":"accessorColors"},{"bufferView":3,"componentType":5126,"count":7320,"type":"VEC2","name":"accessorUVs"},{"bufferView":0,"byteOffset":14640,"componentType":5123,"count":2880,"type":"SCALAR","name":"accessorIndices"},{"bufferView":1,"byteOffset":175680,"componentType":5126,"count":2880,"max":[0.4797601,0.4797601,0.4797601],"min":[-0.4797601,-0.4797601,-0.4797601],"type":"VEC3","name":"accessorPositions"},{"bufferView":1,"byteOffset":210240,"componentType":5126,"count":2880,"type":"VEC3","name":"accessorNormals"},{"bufferView":3,"byteOffset":58560,"componentType":5126,"count":2880,"type":"VEC2","name":"accessorUVs"}],"bufferViews":[{"buffer":0,"byteLength":20400,"name":"bufferViewScalar"},{"buffer":0,"byteOffset":20400,"byteLength":244800,"byteStride":12,"name":"bufferViewFloatVec3"},{"buffer":0,"byteOffset":265200,"byteLength":117120,"byteStride":16,"name":"bufferViewFloatVec4"},{"buffer":0,"byteOffset":382320,"byteLength":81600,"byteStride":8,"name":"bufferViewFloatVec2"}],"buffers":[{"uri":"simplicite_baque_accuel_v05.bin","byteLength":463920}],"materials":[{"pbrMetallicRoughness":{"baseColorTexture":{"index":3},"metallicRoughnessTexture":{"index":4}},"normalTexture":{"index":0},"occlusionTexture":{"index":1},"emissiveTexture":{"index":2},"emissiveFactor":[1.0,1.0,1.0],"name":"Material #2"},{"pbrMetallicRoughness":{"baseColorFactor":[0.0,0.0,0.0,1.0],"roughnessFactor":0.3},"name":"Material #3"}],"textures":[{"sampler":0,"source":0,"name":"normal.png"},{"sampler":0,"source":1,"name":"ao.png"},{"sampler":0,"source":2,"name":"emissive.png"},{"sampler":0,"source":3,"name":"difusse.png"},{"sampler":0,"source":4,"name":"roughtnessmetallic.jpg"}],"images":[{"uri":"./normal.png"},{"uri":"./ao.png"},{"uri":"./emissive.png"},{"uri":"./difusse.png"},{"uri":"./roughtnessmetallic.jpg"}],"samplers":[{"magFilter":9729,"minFilter":9987}]}