{"asset":{"version":"2.0","generator":"babylon.js glTF exporter for 3dsmax 2017 v20200513.2"},"scene":0,"scenes":[{"nodes":[0,1]}],"nodes":[{"mesh":0,"translation":[0.0110498806,0.3384046,-0.150111973],"name":"Box010"},{"name":"Default light"}],"meshes":[{"primitives":[{"attributes":{"POSITION":1,"NORMAL":2,"COLOR_0":3,"TEXCOORD_0":4},"indices":0,"material":0}],"name":"Box010"}],"accessors":[{"bufferView":0,"componentType":5123,"count":7320,"type":"SCALAR","name":"accessorIndices"},{"bufferView":1,"componentType":5126,"count":7320,"max":[0.6000002,0.550000131,0.20711191],"min":[-0.6000002,-0.5500001,-0.195971772],"type":"VEC3","name":"accessorPositions"},{"bufferView":1,"byteOffset":87840,"componentType":5126,"count":7320,"type":"VEC3","name":"accessorNormals"},{"bufferView":2,"componentType":5126,"count":7320,"type":"VEC4","name":"accessorColors"},{"bufferView":3,"componentType":5126,"count":7320,"type":"VEC2","name":"accessorUVs"}],"bufferViews":[{"buffer":0,"byteLength":14640,"name":"bufferViewScalar"},{"buffer":0,"byteOffset":14640,"byteLength":175680,"byteStride":12,"name":"bufferViewFloatVec3"},{"buffer":0,"byteOffset":190320,"byteLength":117120,"byteStride":16,"name":"bufferViewFloatVec4"},{"buffer":0,"byteOffset":307440,"byteLength":58560,"byteStride":8,"name":"bufferViewFloatVec2"}],"buffers":[{"uri":"simplicite_baque_accuel_v04.bin","byteLength":366000}],"materials":[{"pbrMetallicRoughness":{"baseColorTexture":{"index":3},"metallicRoughnessTexture":{"index":4}},"normalTexture":{"index":0},"occlusionTexture":{"index":1},"emissiveTexture":{"index":2},"emissiveFactor":[1.0,1.0,1.0],"name":"Material #2"}],"textures":[{"sampler":0,"source":0,"name":"normal.png"},{"sampler":0,"source":1,"name":"ao.png"},{"sampler":0,"source":2,"name":"emissive.png"},{"sampler":0,"source":3,"name":"difusse.png"},{"sampler":0,"source":4,"name":"roughtnessmetallic.jpg"}],"images":[{"uri":"./normal.png"},{"uri":"./ao.png"},{"uri":"./emissive.png"},{"uri":"./difusse.png"},{"uri":"./roughtnessmetallic.jpg"}],"samplers":[{"magFilter":9729,"minFilter":9987}]}