<?xml version="1.0" encoding="utf-8"?>
<!-- Generator: Adobe Illustrator 17.1.0, SVG Export Plug-In . SVG Version: 6.00 Build 0)  -->
<!DOCTYPE svg PUBLIC "-//W3C//DTD SVG 1.1//EN" "http://www.w3.org/Graphics/SVG/1.1/DTD/svg11.dtd">
<svg version="1.1" id="Layer_1" xmlns="http://www.w3.org/2000/svg" xmlns:xlink="http://www.w3.org/1999/xlink" x="0px" y="0px"
	 viewBox="0 0 77.3 59.1" enable-background="new 0 0 77.3 59.1" xml:space="preserve">
<g>
	<g>
		<path fill="#FFFFFF" d="M6.8,47.6h63.6c0.7,0,1.2-0.6,1.2-1.2V33.9v-6.2V3.1c0-1.7-1.4-3.1-3.1-3.1H8.7C7,0,5.6,1.4,5.6,3.1v24.6
			v6.2v12.4C5.6,47,6.1,47.6,6.8,47.6z M10.4,33.9v-6.2V4.8h56.5v22.9v6.2v8.8H10.4V33.9z"/>
		<path fill="#FFFFFF" d="M76.1,51.1H1.2c-0.7,0-1.2,0.6-1.2,1.2v2.7c0,2.2,1.8,4,4,4h69.2c2.2,0,4-1.8,4-4v-2.7
			C77.3,51.7,76.7,51.1,76.1,51.1z M5.5,56.7c-0.9,0-1.6-0.7-1.6-1.6c0-0.9,0.7-1.6,1.6-1.6s1.6,0.7,1.6,1.6
			C7.1,56,6.4,56.7,5.5,56.7z M11.6,56.7c-0.9,0-1.6-0.7-1.6-1.6c0-0.9,0.7-1.6,1.6-1.6s1.6,0.7,1.6,1.6
			C13.2,56,12.5,56.7,11.6,56.7z M17.8,56.7c-0.9,0-1.6-0.7-1.6-1.6c0-0.9,0.7-1.6,1.6-1.6s1.6,0.7,1.6,1.6
			C19.3,56,18.6,56.7,17.8,56.7z M48.9,55.8c0,0.4-0.3,0.8-0.8,0.8h-19c-0.4,0-0.8-0.3-0.8-0.8v-1.4c0-0.4,0.3-0.8,0.8-0.8h19
			c0.4,0,0.8,0.3,0.8,0.8L48.9,55.8z"/>
	</g>
	<polygon fill="#FFFFFF" stroke="#FA8006" stroke-miterlimit="10" points="10.4,33.9 10.4,27.7 10.4,4.8 66.9,4.8 66.9,27.7 
		66.9,33.9 66.9,42.8 10.4,42.8 	"/>
	<g>
		<path fill="#FA8006" d="M38.8,33l-8.4-18.8c-0.3-0.6-0.9-0.9-1.7-0.9c-0.7,0-1.2,0.3-1.5,1l-5.1,12.1H10.3v-1h11.1l4.8-11.5
			c0.4-1.1,1.3-1.7,2.5-1.7c1.1,0,2,0.5,2.6,1.5l7.5,16.9L45,18.1c0.4-1,1.3-1.5,2.4-1.5c1.1,0,1.9,0.5,2.4,1.5l3.7,7.2h13.8v1H52.9
			l-4-7.8c-0.3-0.7-0.8-1-1.5-1c-0.7,0-1.2,0.3-1.4,0.9L38.8,33z"/>
	</g>
	<g>
		<path fill="#FA8006" d="M38.7,37.6c-1.1,0-1.9-0.5-2.4-1.5l-7.3-16.3l-3.8,9.1H10.3v-1h14.2l4.4-10.7l8.3,18.5
			c0.3,0.6,0.7,0.9,1.4,0.9c0.7,0,1.2-0.3,1.4-0.9l7.3-14.5l3.3,6.7h16.5v1H50.1l-2.7-5.4L41,36.1C40.6,37,39.8,37.6,38.7,37.6z"/>
	</g>
	<path fill="#FA8006" d="M10.3,26v2.3h15l3.5-7.8l8.5,16.1l2.1,0.5c0,0,1.5-1.3,1.9-2.1s6.2-10.7,6.2-10.7l3,4.1l16.3,0l0.1-2.6
		l-13.4,0.1L49,17.6l-1.4-0.5L46,17.3l-7.2,14.5l-8.4-18.6l-1.9-0.7l-0.9,0.2l-1.3,1.8L21.7,26H10.3z"/>
</g>
</svg>
