<?xml version="1.0" encoding="utf-8"?>
<!-- Generator: Adobe Illustrator 17.1.0, SVG Export Plug-In . SVG Version: 6.00 Build 0)  -->
<!DOCTYPE svg PUBLIC "-//W3C//DTD SVG 1.1//EN" "http://www.w3.org/Graphics/SVG/1.1/DTD/svg11.dtd">
<svg version="1.1" id="Layer_1" xmlns="http://www.w3.org/2000/svg" xmlns:xlink="http://www.w3.org/1999/xlink" x="0px" y="0px"
	 viewBox="0 0 46 80.3" enable-background="new 0 0 46 80.3" xml:space="preserve">
<g>
	<path fill="#FF6B00" d="M4.1,52.9c0,0,34.5-34.1,36.6-36.1c2.1-2.1,2,1.5,2,1.5s0.1,12.7,0,15.2c-0.1,2.5-0.9,2.6-0.9,2.6
		S15.5,61.8,14.1,63.4c-1.5,1.6-2.6-0.1-2.6-0.1s-5.8-5.5-7.4-7C2.4,54.8,4.1,52.9,4.1,52.9 M14.8,63.9c0,0-1.2,1.6-0.1,2.6
		c1.1,1,8.1,7.7,8.1,7.7s2.5,1.1,2.6-1.1c0.1-2.1,0-18,0-18s0-2-1.5-0.2C22.5,56.7,14.8,63.9,14.8,63.9 M14.2,38.7
		c0,0,1.6,1.4,2.9,0.1c1.3-1.3,7-7,7-7s1.3-1.1,0.1-2.2C23,28.4,9.9,16.9,9.9,16.9s-3.1-2-3.2,0.3c-0.1,2.3,0.2,12.3,0.2,12.3
		s-0.3,2,1,3.3C9.2,34,14.2,38.7,14.2,38.7 M32.4,12.6c-0.1-3.9-3.3-6.9-7.2-6.8c-3.9,0.1-6.9,3.3-6.8,7.2c0.1,3.8,3.3,6.9,7.2,6.8
		C29.5,19.6,32.5,16.4,32.4,12.6"/>
</g>
</svg>
