<?xml version="1.0" encoding="utf-8"?>
<!-- Generator: Adobe Illustrator 17.1.0, SVG Export Plug-In . SVG Version: 6.00 Build 0)  -->
<!DOCTYPE svg PUBLIC "-//W3C//DTD SVG 1.1//EN" "http://www.w3.org/Graphics/SVG/1.1/DTD/svg11.dtd">
<svg version="1.1" id="Layer_1" xmlns="http://www.w3.org/2000/svg" xmlns:xlink="http://www.w3.org/1999/xlink" x="0px" y="0px"
	 viewBox="0 0 192.3 78.8" enable-background="new 0 0 192.3 78.8" xml:space="preserve">
<g>
	<path fill="#FF6B00" d="M0.8,54c0,0,39.7-39.1,42.1-41.5c2.4-2.4,2.3,1.7,2.3,1.7s0.1,14.6,0,17.5c-0.1,2.8-1,3-1,3
		S14,64.3,12.3,66.1c-1.7,1.8-3-0.1-3-0.1s-6.7-6.3-8.5-8C-1,56.2,0.8,54,0.8,54 M13.2,66.7c0,0-1.3,1.8-0.1,2.9
		c1.2,1.1,9.3,8.9,9.3,8.9s2.8,1.2,3-1.2c0.1-2.5,0-20.7,0-20.7s0-2.3-1.7-0.2C22,58.4,13.2,66.7,13.2,66.7 M12.4,37.7
		c0,0,1.9,1.6,3.4,0.1c1.5-1.5,8.1-8,8.1-8s1.5-1.3,0.1-2.5C22.5,26,7.5,12.8,7.5,12.8S4,10.5,3.9,13.1c-0.1,2.6,0.2,14.1,0.2,14.1
		S3.8,29.6,5.3,31C6.8,32.4,12.4,37.7,12.4,37.7 M33.3,7.8c-0.1-4.4-3.8-7.9-8.3-7.8c-4.4,0.1-7.9,3.8-7.8,8.3
		c0.1,4.4,3.8,7.9,8.3,7.8C30,15.9,33.5,12.2,33.3,7.8"/>
	<g>
		<path fill="#FF6B00" d="M67.4,46L62,37.3h2.9l3.8,6.4l3.7-6.4h2.8L69.9,46v5.6h-2.5V46z M84.1,47c0.4-3.1-1.6-6-4.9-6
			c-3.1,0-5,2.5-5,5.4c0,3.2,1.8,5.4,5,5.4c2.3,0,4.2-1.3,4.7-3.5h-2.2c-0.4,1.1-1.2,1.7-2.5,1.7c-1.9,0-2.8-1.4-2.8-3.1H84.1z
			 M76.5,45.5c0.1-1.5,1.1-2.7,2.7-2.7c1.5,0,2.5,1.3,2.6,2.7H76.5z M86.2,51.6h2.3V37.3h-2.3V51.6z"/>
		<path fill="#585857" d="M93.2,39.4h-1.7v-2.1h1.7V39.4z M91.5,41.3h1.7v10.3h-1.7V41.3z M96.1,51.6h1.7v-5.8c0-1.9,1-3.2,3.1-3.2
			c1.3,0,2.1,0.8,2.1,2.1v7h1.7v-6.8c0-2.2-0.8-3.8-3.5-3.8c-1.5,0-2.6,0.6-3.4,1.9h0v-1.6h-1.6V51.6z M108.2,51.6h1.7v-8.8h2v-1.5
			h-2v-1.4c0-0.9,0.5-1.2,1.3-1.2c0.3,0,0.7,0,1,0.1v-1.5c-0.3-0.1-0.8-0.2-1.1-0.2c-1.9,0-2.9,0.9-2.9,2.6v1.5h-1.7v1.5h1.7V51.6z
			 M118.2,41c3.3,0,5,2.4,5,5.4c0,3-1.7,5.4-5,5.4c-3.3,0-5-2.4-5-5.4C113.2,43.4,114.9,41,118.2,41 M118.2,50.3
			c1.8,0,3.2-1.4,3.2-3.9c0-2.5-1.4-3.9-3.2-3.9c-1.8,0-3.2,1.4-3.2,3.9C115,48.9,116.4,50.3,118.2,50.3 M125.5,51.6h1.7V47
			c0-2.6,1-4.2,3.7-4.2V41c-1.8-0.1-3,0.8-3.8,2.4h0v-2.2h-1.6V51.6z M132.5,51.6h1.7v-6.4c0-0.8,0.7-2.6,2.8-2.6
			c1.5,0,1.9,1,1.9,2.3v6.8h1.7v-6.4c0-1.6,1.1-2.6,2.7-2.6c1.7,0,2,1,2,2.3v6.8h1.7V44c0-2.1-1.4-3-3.4-3c-1.3,0-2.5,0.7-3.2,1.8
			c-0.4-1.3-1.6-1.8-2.8-1.8c-1.4,0-2.6,0.6-3.3,1.8h0v-1.5h-1.6V51.6z M158.9,51.5c-0.3,0.2-0.7,0.3-1.2,0.3
			c-0.9,0-1.4-0.5-1.4-1.6c-0.9,1.1-2.2,1.6-3.6,1.6c-1.9,0-3.4-0.8-3.4-2.9c0-2.3,1.7-2.8,3.5-3.2c1.9-0.4,3.5-0.2,3.5-1.5
			c0-1.5-1.2-1.7-2.3-1.7c-1.4,0-2.5,0.4-2.6,2h-1.7c0.1-2.6,2.1-3.4,4.4-3.4c1.9,0,3.9,0.4,3.9,2.8v5.3c0,0.8,0,1.2,0.5,1.2
			c0.1,0,0.3,0,0.5-0.1V51.5z M156.2,46.3c-0.7,0.5-1.9,0.5-3.1,0.7c-1.1,0.2-2.1,0.6-2.1,1.9c0,1.1,1,1.5,2,1.5
			c2.2,0,3.2-1.4,3.2-2.3V46.3z M154.4,37h2.2l-2.6,2.9h-1.3L154.4,37z M163.2,38.2h-1.7v3.1h-1.8v1.5h1.8v6.6
			c0,1.9,0.7,2.3,2.5,2.3h1.3v-1.5h-0.8c-1.1,0-1.3-0.1-1.3-0.9v-6.4h2.1v-1.5h-2.1V38.2z M169.2,39.4h-1.7v-2.1h1.7V39.4z
			 M167.5,41.3h1.7v10.3h-1.7V41.3z M180.9,44.6c-0.2-2.5-2.1-3.5-4.4-3.5c-3.3,0-4.9,2.4-4.9,5.5c0,3.1,1.7,5.3,4.8,5.3
			c2.6,0,4.2-1.5,4.5-4h-1.7c-0.2,1.6-1.2,2.5-2.8,2.5c-2.2,0-3-1.9-3-3.8c0-2.1,0.8-4,3.2-4c1.4,0,2.3,0.8,2.6,2.1H180.9z
			 M192.3,51.5c-0.3,0.2-0.7,0.3-1.2,0.3c-0.9,0-1.4-0.5-1.4-1.6c-0.9,1.1-2.2,1.6-3.6,1.6c-1.9,0-3.4-0.8-3.4-2.9
			c0-2.3,1.7-2.8,3.5-3.2c1.9-0.4,3.5-0.2,3.5-1.5c0-1.5-1.2-1.7-2.3-1.7c-1.4,0-2.5,0.4-2.6,2H183c0.1-2.6,2.1-3.4,4.4-3.4
			c1.9,0,3.9,0.4,3.9,2.8v5.3c0,0.8,0,1.2,0.5,1.2c0.1,0,0.3,0,0.5-0.1V51.5z M189.6,46.3c-0.7,0.5-1.9,0.5-3.1,0.7
			c-1.1,0.2-2.1,0.6-2.1,1.9c0,1.1,1,1.5,2,1.5c2.2,0,3.2-1.4,3.2-2.3V46.3z"/>
	</g>
</g>
</svg>
