<?xml version="1.0" encoding="utf-8"?>
<!-- Generator: Adobe Illustrator 17.1.0, SVG Export Plug-In . SVG Version: 6.00 Build 0)  -->
<!DOCTYPE svg PUBLIC "-//W3C//DTD SVG 1.1//EN" "http://www.w3.org/Graphics/SVG/1.1/DTD/svg11.dtd">
<svg version="1.1" id="Layer_1" xmlns="http://www.w3.org/2000/svg" xmlns:xlink="http://www.w3.org/1999/xlink" x="0px" y="0px"
	 viewBox="0 0 195.9 80.3" enable-background="new 0 0 195.9 80.3" xml:space="preserve">
<g>
	<path fill="#FF6B00" d="M0.8,55c0,0,40.4-39.8,42.8-42.2c2.5-2.4,2.3,1.7,2.3,1.7s0.1,14.9,0,17.8c-0.1,2.9-1.1,3.1-1.1,3.1
		s-30.7,30.1-32.4,32c-1.7,1.8-3-0.1-3-0.1s-6.8-6.4-8.7-8.2C-1,57.3,0.8,55,0.8,55 M13.4,67.9c0,0-1.3,1.8-0.1,3
		c1.3,1.2,9.5,9,9.5,9s2.9,1.2,3-1.3c0.1-2.5,0-21.1,0-21.1s0-2.3-1.7-0.2C22.4,59.5,13.4,67.9,13.4,67.9 M12.7,38.4
		c0,0,1.9,1.6,3.4,0.1c1.5-1.5,8.2-8.2,8.2-8.2s1.5-1.3,0.1-2.6C23,26.5,7.7,13,7.7,13S4.1,10.7,4,13.4c-0.1,2.7,0.2,14.3,0.2,14.3
		s-0.3,2.4,1.2,3.8C6.9,33,12.7,38.4,12.7,38.4 M34,7.9c-0.1-4.5-3.9-8-8.4-7.9c-4.5,0.1-8,3.9-7.9,8.4c0.1,4.5,3.9,8,8.4,7.9
		C30.6,16.2,34.1,12.4,34,7.9"/>
	<g>
		<path fill="#FF6B00" d="M68.6,46.8L63.2,38h2.9l3.8,6.5l3.8-6.5h2.8l-5.4,8.8v5.7h-2.5V46.8z M85.7,47.9c0.4-3.1-1.6-6.1-5-6.1
			c-3.1,0-5.1,2.6-5.1,5.5c0,3.2,1.8,5.5,5.1,5.5c2.3,0,4.2-1.3,4.8-3.6h-2.2c-0.4,1.2-1.2,1.7-2.6,1.7c-1.9,0-2.8-1.5-2.8-3.1H85.7
			z M78,46.4c0.1-1.6,1.2-2.8,2.8-2.8c1.6,0,2.6,1.3,2.6,2.8H78z M87.8,52.5h2.3V38h-2.3V52.5z"/>
		<path fill="#FFFFFF" d="M94.9,40.1h-1.7V38h1.7V40.1z M93.2,42h1.7v10.5h-1.7V42z M97.9,52.5h1.7v-5.9c0-1.9,1-3.3,3.1-3.3
			c1.3,0,2.1,0.8,2.1,2.1v7.1h1.7v-6.9c0-2.3-0.9-3.8-3.6-3.8c-1.5,0-2.7,0.6-3.4,1.9h0V42h-1.6V52.5z M110.2,52.5h1.7v-9h2V42h-2
			v-1.5c0-0.9,0.5-1.2,1.3-1.2c0.3,0,0.7,0,1,0.1V38c-0.3-0.1-0.8-0.2-1.1-0.2c-1.9,0-2.9,0.9-2.9,2.6V42h-1.8v1.5h1.8V52.5z
			 M120.4,41.8c3.3,0,5.1,2.4,5.1,5.5c0,3.1-1.8,5.5-5.1,5.5c-3.3,0-5.1-2.4-5.1-5.5C115.3,44.2,117.1,41.8,120.4,41.8 M120.4,51.3
			c1.8,0,3.3-1.4,3.3-4c0-2.6-1.5-4-3.3-4c-1.8,0-3.3,1.4-3.3,4C117.1,49.8,118.6,51.3,120.4,51.3 M127.8,52.5h1.7v-4.7
			c0-2.7,1-4.2,3.8-4.2v-1.8c-1.9-0.1-3,0.8-3.9,2.5h0V42h-1.6V52.5z M134.9,52.5h1.7V46c0-0.8,0.8-2.7,2.8-2.7c1.5,0,2,1,2,2.3v6.9
			h1.7V46c0-1.6,1.1-2.7,2.7-2.7c1.7,0,2,1,2,2.3v6.9h1.7v-7.7c0-2.2-1.4-3-3.5-3c-1.3,0-2.6,0.7-3.3,1.8c-0.4-1.3-1.6-1.8-2.9-1.8
			c-1.4,0-2.6,0.6-3.4,1.8h0V42h-1.6V52.5z M161.9,52.5c-0.3,0.2-0.7,0.3-1.2,0.3c-0.9,0-1.5-0.5-1.5-1.6c-1,1.1-2.2,1.6-3.7,1.6
			c-1.9,0-3.5-0.9-3.5-2.9c0-2.4,1.8-2.9,3.6-3.2c1.9-0.4,3.5-0.2,3.5-1.5c0-1.5-1.2-1.7-2.3-1.7c-1.5,0-2.5,0.4-2.6,2h-1.7
			c0.1-2.6,2.1-3.5,4.4-3.5c1.9,0,3.9,0.4,3.9,2.9v5.4c0,0.8,0,1.2,0.5,1.2c0.1,0,0.3,0,0.5-0.1V52.5z M159.1,47.1
			c-0.7,0.5-2,0.5-3.1,0.7c-1.1,0.2-2.1,0.6-2.1,1.9c0,1.1,1,1.5,2,1.5c2.3,0,3.2-1.4,3.2-2.4V47.1z M157.3,37.7h2.2l-2.7,2.9h-1.3
			L157.3,37.7z M166.2,38.9h-1.7V42h-1.8v1.5h1.8v6.7c0,1.9,0.7,2.3,2.5,2.3h1.3V51h-0.8c-1.1,0-1.3-0.1-1.3-0.9v-6.5h2.1V42h-2.1
			V38.9z M172.4,40.1h-1.7V38h1.7V40.1z M170.6,42h1.7v10.5h-1.7V42z M184.3,45.4c-0.2-2.5-2.2-3.6-4.5-3.6c-3.3,0-5,2.5-5,5.6
			c0,3.1,1.7,5.4,4.9,5.4c2.6,0,4.2-1.5,4.6-4.1h-1.8c-0.2,1.6-1.2,2.6-2.9,2.6c-2.2,0-3.1-1.9-3.1-3.8c0-2.1,0.8-4.1,3.3-4.1
			c1.4,0,2.3,0.8,2.6,2.1H184.3z M195.9,52.5c-0.3,0.2-0.7,0.3-1.2,0.3c-0.9,0-1.5-0.5-1.5-1.6c-1,1.1-2.2,1.6-3.7,1.6
			c-1.9,0-3.5-0.9-3.5-2.9c0-2.4,1.8-2.9,3.6-3.2c1.9-0.4,3.5-0.2,3.5-1.5c0-1.5-1.2-1.7-2.3-1.7c-1.5,0-2.5,0.4-2.6,2h-1.7
			c0.1-2.6,2.1-3.5,4.4-3.5c1.9,0,3.9,0.4,3.9,2.9v5.4c0,0.8,0,1.2,0.5,1.2c0.1,0,0.3,0,0.5-0.1V52.5z M193.1,47.1
			c-0.7,0.5-2,0.5-3.1,0.7c-1.1,0.2-2.1,0.6-2.1,1.9c0,1.1,1,1.5,2,1.5c2.3,0,3.2-1.4,3.2-2.4V47.1z"/>
	</g>
</g>
</svg>
